<svg width="80" height="63" viewBox="0 0 80 63" xmlns="http://www.w3.org/2000/svg" xmlns:xlink="http://www.w3.org/1999/xlink">
    <defs>
        <path id="rdwvkhqkna" d="M52.882 0 39.729 14.467 26.305 0H0l39.729 40.398L80 0z"/>
    </defs>
    <g fill="#FFF" fill-rule="evenodd">
        <path d="M18.665 63h1.867V53.71h-1.867zM28.042 53.98a2.936 2.936 0 0 0-.898.576c-.254.24-.458.527-.608.851-.15.325-.227.675-.227 1.042v3.867c0 .366.076.716.227 1.041.15.325.354.611.608.851A2.93 2.93 0 0 0 29.14 63h5.552v-1.5H29.14a1.23 1.23 0 0 1-.887-.343 1.104 1.104 0 0 1-.361-.84v-3.868c0-.336.118-.61.361-.841a1.23 1.23 0 0 1 .887-.343h5.552v-1.5H29.14a2.85 2.85 0 0 0-1.098.215M40.155 55.265h3.387V63h1.596v-7.735h3.4v-1.5h-8.383zM8.03 60.507l-4.032-6.68-.032-.053h-1.74l5.406 8.942a.381.381 0 0 0 .325.197h.133c.136 0 .26-.076.322-.192l5.433-8.947h-1.74L8.03 60.507zM62.14 60.316c0 .335-.12.61-.362.84a1.23 1.23 0 0 1-.888.344h-4.08a1.23 1.23 0 0 1-.887-.343 1.103 1.103 0 0 1-.362-.841v-6.551H53.98v6.551c0 .366.076.716.227 1.041.15.324.354.611.608.851A2.926 2.926 0 0 0 56.81 63h4.08a2.85 2.85 0 0 0 1.099-.215c.342-.142.644-.336.898-.577a2.77 2.77 0 0 0 .608-.85c.15-.325.227-.676.227-1.042v-6.551h-1.583v6.551zM78.011 59.274a2.77 2.77 0 0 0-.608-.85 2.946 2.946 0 0 0-.898-.577 2.86 2.86 0 0 0-1.098-.215h-3.413c-.354 0-.644-.112-.887-.343a1.103 1.103 0 0 1-.362-.84c0-.336.118-.61.362-.841a1.23 1.23 0 0 1 .887-.343h5.442v-1.5h-5.442a2.85 2.85 0 0 0-1.099.215 2.932 2.932 0 0 0-.898.576c-.254.24-.458.527-.608.85a2.46 2.46 0 0 0-.226 1.043c0 .365.076.716.226 1.04.15.325.354.611.608.852a2.92 2.92 0 0 0 1.997.791h3.413c.353 0 .643.112.887.343.243.232.362.506.362.841 0 .335-.119.61-.362.84-.244.232-.534.344-.887.344h-6.113V63h6.113a2.85 2.85 0 0 0 1.098-.215 2.94 2.94 0 0 0 .898-.577 2.76 2.76 0 0 0 .608-.85c.151-.327.227-.677.227-1.042s-.076-.715-.227-1.042"/>
        <use xlink:href="#rdwvkhqkna"/>
    </g>
</svg>
